<?xml version="1.0" encoding="UTF-8" standalone="no"?>
<svg width="50px" height="50px" viewBox="0 0 50 50" version="1.1" xmlns="http://www.w3.org/2000/svg" xmlns:xlink="http://www.w3.org/1999/xlink" xmlns:sketch="http://www.bohemiancoding.com/sketch/ns">
    <!-- Generator: Sketch 3.3.1 (12002) - http://www.bohemiancoding.com/sketch -->
    <title>zhihu_F</title>
    <desc>Created with Sketch.</desc>
    <defs></defs>
    <g id="Page-1" stroke="none" stroke-width="1" fill="none" fill-rule="evenodd" sketch:type="MSPage">
        <path d="M25,50 C38.8071194,50 50,38.8071194 50,25 C50,11.1928806 38.8071194,0 25,0 C11.1928806,0 0,11.1928806 0,25 C0,38.8071194 11.1928806,50 25,50 Z M16.3903654,10.6746981 C16.3903654,10.6746981 14.2689296,10.7994883 13.5201877,12.109787 C12.7714457,13.4200855 10.3380339,20.1587641 10.3380339,20.1587641 C10.3380339,20.1587641 11.1491715,20.5331349 12.5218649,19.5348122 C13.8945585,18.5364897 14.3313246,16.7894246 14.3313246,16.7894246 L16.8271316,16.6646344 L16.8895268,23.7776838 C16.8895268,23.7776838 12.5842601,23.7152879 11.7107276,23.7776834 C10.8371952,23.840079 10.3380339,26.1486999 10.3380339,26.1486999 L16.8895269,26.1486999 C16.8895269,26.1486999 16.3279701,30.0795958 14.6433006,32.949774 C12.9586311,35.8199522 9.77647738,38.0661775 9.77647738,38.0661775 C9.77647738,38.0661775 12.0850988,39.0021059 14.3313248,37.6918067 C16.5775508,36.3815074 18.2337003,30.6189768 18.2337003,30.6189768 L23.5034148,37.067855 C23.5034148,37.067855 23.9843002,33.9985601 23.4180875,33.1315462 C22.8518749,32.2645323 19.7730918,28.778784 19.7730918,28.778784 L18.4283357,29.9642927 L19.3853336,26.1486999 L25.1256892,26.1487002 C25.1256892,26.1487002 25.1256896,23.9024741 24.0025764,23.7776834 C22.8794632,23.6528928 19.3853336,23.7776834 19.3853336,23.7776834 L19.3853336,16.7894246 L24.5641327,16.7894247 C24.5641327,16.7894247 24.5017377,14.4808034 23.5034147,14.4808034 C22.5050917,14.4808034 15.0800668,14.4808034 15.0800668,14.4808034 L16.3903654,10.6746981 Z M26.3510661,14.2603489 L38.1580725,14.2603489 L38.1580725,35.2696454 L32.9399256,35.2696454 L29.2276678,37.9070298 L28.4605562,35.2696454 L26.3510661,35.2696454 L26.3510661,14.2603489 Z M28.8508985,16.5986274 L35.7583377,16.5986274 L35.7583377,32.8834384 L33.3045942,32.8834384 L30.1769502,35.2413543 L29.4950368,32.8834384 L28.8508985,32.8834384 L28.8508985,16.5986274 Z" id="zhihu_F" fill="#2F4074" sketch:type="MSShapeGroup"></path>
    </g>
</svg>